# xmcd CD database file
#
# Track frame offsets:
#	150
#	33325
#	61152
#	94219
#	123765
#	153881
#	184268
#	217459
#
# Disc length: 3333 seconds
#
# Revision: 0
# Processed by: cddbd v1.5.1PL2 Copyright (c) Steve Scherf et al.
# Submitted via: CDex 1.51
#
DISCID=6b0d0308
DTITLE=Jim Snidero - San Juan
DYEAR=1994
DGENRE=Jazz
TTITLE0=Introspect
TTITLE1=San Juan
TTITLE2=Mystery
TTITLE3=The Web
TTITLE4=Foreward Motion
TTITLE5=La Mesha
TTITLE6=In A Daze
TTITLE7=To Whom It May Concern
EXTD=YEAR: 1994
EXTT0=
EXTT1=
EXTT2=
EXTT3=
EXTT4=
EXTT5=
EXTT6=
EXTT7=
PLAYORDER=
